<?xml version="1.0" encoding="UTF-8"?>
<svg id="Layer_1" xmlns="http://www.w3.org/2000/svg" version="1.1" viewBox="0 0 252.75 48.73">
  <!-- Generator: Adobe Illustrator 30.1.0, SVG Export Plug-In . SVG Version: 2.1.1 Build 136)  -->
  <defs>
    <style>
      .st0 {
        fill: #ff521d;
      }
    </style>
  </defs>
  <path class="st0" d="M38.7,20.86l-2.45,2.68h0c-.65.72-1.57,1.12-2.53,1.12-.03,0-.06,0-.09,0-3.33-.08-9.78.36-16.05,4.6l-.14.1c-2.62,1.8-4.66,3.88-6.24,6.01-.01.01-.02.03-.03.04-2.82,3.74-4.71,8.2-5.36,13.06,0,.07-.02.13-.02.18,0,.03,0,.06-.01.09-1.54-2.39-2.78-4.89-3.73-7.48-.98-2.69-1.61-5.45-1.88-8.2-.2-2.06-.2-4.12,0-6.13C1.52,13.25,11.89,4.45,17.31.73l-1.8,9.21,3.45-2.71c2.53-1.99,5.22-3.77,8.03-5.31l-.33,1.66-1.43,7.31c-.07.34-.11.69-.12,1.04-.03.98.19,1.92.59,2.75-1.64-.75-3.25-1.54-4.83-2.39-.37-.2-.82-.06-1.02.31-.2.37-.06.82.31,1.02,3.63,1.95,7.43,3.64,11.31,5.03,2.36.84,4.78,1.58,7.22,2.21"/>
  <g>
    <path class="st0" d="M74.01,12.96h-15.5v7.19h14.48v12.09h-14.48v15.67h-14.58V.83h30.08v12.13Z"/>
    <path class="st0" d="M119.2,29.25c0,2.98-.46,5.68-1.37,8.09-.92,2.41-2.25,4.46-4.01,6.14-1.76,1.69-3.93,2.99-6.51,3.9-2.58.9-5.54,1.36-8.88,1.36s-6-.43-8.46-1.29c-2.46-.86-4.53-2.11-6.21-3.74-1.68-1.64-2.95-3.62-3.83-5.97-.87-2.34-1.31-4.99-1.31-7.95V.83h14.58v28.56c0,1.21.14,2.26.43,3.13.29.87.69,1.59,1.21,2.14s1.14.96,1.85,1.21c.72.25,1.52.38,2.4.38s1.69-.13,2.42-.38c.73-.25,1.35-.64,1.87-1.16.52-.52.92-1.18,1.21-1.97.29-.8.43-1.73.43-2.82V.83h14.18v28.42Z"/>
    <path class="st0" d="M166.51,44.79c-2.36,1.19-4.99,2.15-7.88,2.87-2.89.72-6.08,1.08-9.58,1.08-3.93,0-7.45-.57-10.57-1.71-3.11-1.14-5.75-2.74-7.9-4.8-2.15-2.06-3.8-4.55-4.94-7.45s-1.71-6.13-1.71-9.66c0-2.61.31-5.04.93-7.31.62-2.26,1.5-4.32,2.65-6.18,1.15-1.85,2.53-3.5,4.14-4.95,1.61-1.45,3.41-2.66,5.4-3.64,1.99-.98,4.13-1.73,6.43-2.25s4.72-.78,7.26-.78c2.98,0,5.81.36,8.48,1.08,2.67.72,5.15,1.8,7.42,3.26l-3.35,11.59c-.82-.57-1.71-1.08-2.67-1.51s-1.96-.79-3-1.08-2.09-.5-3.16-.64c-1.07-.14-2.1-.22-3.1-.22-1.19,0-2.33.11-3.4.31-1.07.21-2.07.53-3,.96s-1.77.98-2.52,1.65c-.75.67-1.39,1.46-1.92,2.37s-.94,1.93-1.23,3.08c-.29,1.15-.43,2.43-.43,3.84,0,1.79.23,3.41.68,4.85.45,1.44,1.13,2.68,2.02,3.71.9,1.03,2,1.82,3.31,2.38,1.32.56,2.83.85,4.56.85.57,0,1.11-.02,1.61-.05.5-.03.99-.1,1.47-.22v-4.77h-6.13v-11.26h20.11v24.58Z"/>
    <path class="st0" d="M213.79,44.79c-2.36,1.19-4.99,2.15-7.88,2.87-2.89.72-6.08,1.08-9.58,1.08-3.93,0-7.45-.57-10.57-1.71-3.11-1.14-5.75-2.74-7.9-4.8-2.15-2.06-3.8-4.55-4.94-7.45s-1.71-6.13-1.71-9.66c0-2.61.31-5.04.93-7.31.62-2.26,1.5-4.32,2.65-6.18,1.15-1.85,2.53-3.5,4.14-4.95,1.61-1.45,3.41-2.66,5.4-3.64,1.99-.98,4.13-1.73,6.43-2.25s4.72-.78,7.26-.78c2.98,0,5.81.36,8.48,1.08,2.67.72,5.15,1.8,7.42,3.26l-3.35,11.59c-.82-.57-1.71-1.08-2.67-1.51s-1.96-.79-3-1.08-2.09-.5-3.16-.64c-1.07-.14-2.1-.22-3.1-.22-1.19,0-2.33.11-3.4.31-1.07.21-2.07.53-3,.96s-1.77.98-2.52,1.65c-.75.67-1.39,1.46-1.92,2.37s-.94,1.93-1.23,3.08c-.29,1.15-.43,2.43-.43,3.84,0,1.79.23,3.41.68,4.85.45,1.44,1.13,2.68,2.02,3.71.9,1.03,2,1.82,3.31,2.38,1.32.56,2.83.85,4.56.85.57,0,1.11-.02,1.61-.05.5-.03.99-.1,1.47-.22v-4.77h-6.13v-11.26h20.11v24.58Z"/>
    <path class="st0" d="M222.17,33.46c1.81,1.15,3.68,2.02,5.62,2.62,1.93.59,3.79.89,5.58.89.75,0,1.4-.05,1.94-.15.54-.1.99-.25,1.34-.43.35-.19.61-.42.76-.71.15-.29.23-.62.23-.99,0-.62-.28-1.17-.83-1.65s-1.28-.96-2.17-1.41c-.9-.45-1.92-.92-3.08-1.39s-2.34-1.02-3.53-1.62-2.37-1.31-3.53-2.1c-1.16-.79-2.19-1.73-3.08-2.82-.9-1.08-1.62-2.34-2.17-3.79s-.83-3.12-.83-5.02c0-2.27.41-4.33,1.24-6.16.83-1.83,2.02-3.4,3.56-4.69,1.55-1.29,3.42-2.29,5.62-2.98s4.68-1.04,7.44-1.04,5.07.28,7.21.83c2.13.55,4.14,1.36,6.01,2.42l-3.11,11.27c-1.57-.82-3.16-1.49-4.79-2.01-1.63-.52-3.28-.78-4.96-.78-.57,0-1.09.04-1.54.13-.45.09-.83.22-1.14.4-.31.18-.55.4-.71.66-.17.26-.25.58-.25.93,0,.58.28,1.09.83,1.54.55.45,1.27.89,2.17,1.32.89.43,1.91.88,3.06,1.34,1.15.47,2.32.99,3.52,1.59,1.2.59,2.38,1.29,3.52,2.09,1.15.8,2.16,1.75,3.06,2.85s1.62,2.38,2.17,3.84c.55,1.46.83,3.16.83,5.1,0,2.3-.45,4.38-1.36,6.25-.91,1.87-2.17,3.46-3.79,4.79-1.62,1.33-3.57,2.35-5.83,3.08-2.27.73-4.76,1.09-7.47,1.09-3,0-5.66-.33-7.98-.99-2.32-.66-4.47-1.65-6.46-2.95l2.91-11.33Z"/>
  </g>
</svg>
